<svg width="22" height="12" viewBox="0 0 22 12" fill="none" xmlns="http://www.w3.org/2000/svg">
<path d="M16.6689 6.66634H4.66886C4.29553 6.66634 4.0022 6.37301 4.0022 5.99967C4.0022 5.62634 4.29553 5.33301 4.66886 5.33301H16.6689C17.0422 5.33301 17.3355 5.62634 17.3355 5.99967C17.3355 6.37301 17.0422 6.66634 16.6689 6.66634Z" fill="white"/>
<path d="M13.3354 11.333C13.2479 11.334 13.1612 11.3168 13.0809 11.2824C13.0005 11.2479 12.9282 11.197 12.8687 11.133C12.602 10.8663 12.602 10.453 12.8687 10.1863L17.0687 5.98631L12.8687 1.78632C12.602 1.51965 12.602 1.10632 12.8687 0.839648C13.1354 0.572982 13.5487 0.572982 13.8154 0.839648L18.482 5.50632C18.7487 5.77298 18.7487 6.18632 18.482 6.45298L13.8154 11.1196C13.682 11.253 13.5087 11.3196 13.3487 11.3196L13.3354 11.333Z" fill="white"/>
</svg>
