<svg width="262" height="262" viewBox="0 0 262 262" fill="none" xmlns="http://www.w3.org/2000/svg">
<path fill-rule="evenodd" clip-rule="evenodd" d="M131 262C203.349 262 262 203.349 262 131C262 58.6507 203.349 0 131 0C58.6507 0 0 58.6507 0 131C0 203.349 58.6507 262 131 262ZM131 77C147.016 77 160 64.0163 160 48C160 31.9837 147.016 19 131 19C114.984 19 102 31.9837 102 48C102 64.0163 114.984 77 131 77ZM160 213C160 229.016 147.016 242 131 242C114.984 242 102 229.016 102 213C102 196.984 114.984 184 131 184C147.016 184 160 196.984 160 213ZM203 118C219.016 118 232 105.016 232 89C232 72.9837 219.016 60 203 60C186.984 60 174 72.9837 174 89C174 105.016 186.984 118 203 118ZM89 172C89 188.016 76.0163 201 60 201C43.9837 201 31 188.016 31 172C31 155.984 43.9837 143 60 143C76.0163 143 89 155.984 89 172ZM60 118C76.0163 118 89 105.016 89 89C89 72.9837 76.0163 60 60 60C43.9837 60 31 72.9837 31 89C31 105.016 43.9837 118 60 118ZM232 172C232 188.016 219.016 201 203 201C186.984 201 174 188.016 174 172C174 155.984 186.984 143 203 143C219.016 143 232 155.984 232 172ZM122.342 118.942C126.118 116.52 127.215 111.497 124.794 107.721C122.373 103.946 117.349 102.848 113.574 105.269C109.798 107.691 108.7 112.714 111.122 116.49C113.543 120.265 118.566 121.363 122.342 118.942ZM149.738 146.617C152.16 150.392 151.062 155.416 147.286 157.837C143.511 160.259 138.487 159.161 136.066 155.385C133.644 151.61 134.742 146.586 138.518 144.165C142.293 141.744 147.317 142.841 149.738 146.617ZM145.513 117.722C149.289 115.3 150.387 110.277 147.965 106.501C145.544 102.726 140.52 101.628 136.745 104.049C132.969 106.471 131.872 111.494 134.293 115.27C136.714 119.045 141.738 120.143 145.513 117.722ZM126.804 147.686C129.225 151.461 128.127 156.485 124.352 158.906C120.576 161.327 115.553 160.23 113.132 156.454C110.71 152.679 111.808 147.655 115.583 145.234C119.359 142.812 124.383 143.91 126.804 147.686ZM111.803 139.341C115.579 136.92 116.677 131.896 114.255 128.121C111.834 124.345 106.81 123.248 103.035 125.669C99.2594 128.09 98.1616 133.114 100.583 136.889C103.004 140.665 108.028 141.763 111.803 139.341ZM160.513 126.067C162.934 129.843 161.836 134.866 158.061 137.288C154.285 139.709 149.262 138.611 146.841 134.836C144.419 131.06 145.517 126.037 149.292 123.615C153.068 121.194 158.092 122.292 160.513 126.067ZM131 141C136.523 141 141 136.523 141 131C141 125.477 136.523 121 131 121C125.477 121 121 125.477 121 131C121 136.523 125.477 141 131 141Z" fill="#FDC408"/>
</svg>
