<svg width="44" height="44" viewBox="0 0 44 44" fill="none" xmlns="http://www.w3.org/2000/svg">
<path d="M39.875 22H33V16.5C33 13.4664 35.4664 11 38.5 11H39.1875C40.3305 11 41.25 10.0805 41.25 8.9375V4.8125C41.25 3.66953 40.3305 2.75 39.1875 2.75H38.5C30.9031 2.75 24.75 8.90312 24.75 16.5V37.125C24.75 39.4023 26.5977 41.25 28.875 41.25H39.875C42.1523 41.25 44 39.4023 44 37.125V26.125C44 23.8477 42.1523 22 39.875 22ZM15.125 22H8.25V16.5C8.25 13.4664 10.7164 11 13.75 11H14.4375C15.5805 11 16.5 10.0805 16.5 8.9375V4.8125C16.5 3.66953 15.5805 2.75 14.4375 2.75H13.75C6.15312 2.75 0 8.90312 0 16.5V37.125C0 39.4023 1.84766 41.25 4.125 41.25H15.125C17.4023 41.25 19.25 39.4023 19.25 37.125V26.125C19.25 23.8477 17.4023 22 15.125 22Z" fill="#A6ABB4"/>
</svg>
