<svg xmlns="http://www.w3.org/2000/svg" viewBox="0 0 24 24" fill="currentColor">
  <path d="M12 2.163c3.204 0 3.584.012 4.85.07 1.366.062 2.633.33 3.608 1.305.975.975 1.243 2.242 1.305 3.608.058 1.266.069 1.646.069 4.85s-.011 3.584-.069 4.85c-.062 1.366-.33 2.633-1.305 3.608-.975.975-2.242 1.243-3.608 1.305-1.266.058-1.646.069-4.85.069s-3.584-.011-4.85-.069c-1.366-.062-2.633-.33-3.608-1.305-.975-.975-1.243-2.242-1.305-3.608C2.175 15.747 2.163 15.367 2.163 12s.012-3.584.07-4.85c.062-1.366.33-2.633 1.305-3.608.975-.975 2.242-1.243 3.608-1.305C8.416 2.175 8.796 2.163 12 2.163zm0-2.163C8.741 0 8.332.014 7.052.072 5.773.13 4.602.398 3.635 1.365 2.668 2.332 2.4 3.503 2.342 4.782 2.284 6.062 2.27 6.471 2.27 12c0 5.529.014 5.938.072 7.218.058 1.279.326 2.45 1.293 3.417.967.967 2.138 1.235 3.417 1.293C8.332 23.986 8.741 24 12 24s3.668-.014 4.948-.072c1.279-.058 2.45-.326 3.417-1.293.967-.967 1.235-2.138 1.293-3.417.058-1.28.072-1.689.072-7.218 0-5.529-.014-5.938-.072-7.218-.058-1.279-.326-2.45-1.293-3.417C19.398.398 18.227.13 16.948.072 15.668.014 15.259 0 12 0zm0 5.838a6.162 6.162 0 100 12.324 6.162 6.162 0 000-12.324zm0 10.162a3.999 3.999 0 110-7.998 3.999 3.999 0 010 7.998zm6.406-11.845a1.44 1.44 0 11-2.881 0 1.44 1.44 0 012.881 0z"/>
</svg>
