<svg width="64" height="64" viewBox="0 0 64 64" fill="none" xmlns="http://www.w3.org/2000/svg">
<g clip-path="url(#clip0_171_827)">
<path d="M56.889 10.6665H7.11122C6.16823 10.6665 5.26386 11.0411 4.59706 11.7079C3.93027 12.3747 3.55566 13.2791 3.55566 14.2221V49.7776C3.55566 50.7206 3.93027 51.625 4.59706 52.2918C5.26386 52.9586 6.16823 53.3332 7.11122 53.3332H56.889C57.832 53.3332 58.7364 52.9586 59.4032 52.2918C60.07 51.625 60.4446 50.7206 60.4446 49.7776V14.2221C60.4446 13.2791 60.07 12.3747 59.4032 11.7079C58.7364 11.0411 57.832 10.6665 56.889 10.6665ZM54.1512 49.7776H10.0623L22.5068 36.9065L19.9468 34.4354L7.11122 47.7154V16.9243L29.209 38.9154C29.8752 39.5776 30.7763 39.9493 31.7157 39.9493C32.655 39.9493 33.5562 39.5776 34.2223 38.9154L56.889 16.3732V47.4843L43.8046 34.3998L41.2979 36.9065L54.1512 49.7776ZM9.44011 14.2221H54.009L31.7157 36.3909L9.44011 14.2221Z" fill="white"/>
</g>
<defs>
<clipPath id="clip0_171_827">
<rect width="64" height="64" fill="white"/>
</clipPath>
</defs>
</svg>
