<svg width="64" height="64" viewBox="0 0 64 64" fill="none" xmlns="http://www.w3.org/2000/svg">
<path d="M36.55 11.6125C36.6008 11.422 36.6886 11.2434 36.8085 11.0869C36.9284 10.9304 37.0779 10.7991 37.2485 10.7004C37.4192 10.6017 37.6076 10.5376 37.8031 10.5118C37.9985 10.486 38.1971 10.499 38.3875 10.55C42.0105 11.4951 45.316 13.3889 47.9636 16.0365C50.6111 18.684 52.505 21.9895 53.45 25.6125C53.501 25.8029 53.514 26.0015 53.4882 26.197C53.4624 26.3924 53.3983 26.5808 53.2997 26.7515C53.201 26.9222 53.0696 27.0717 52.9131 27.1915C52.7566 27.3114 52.578 27.3992 52.3875 27.45C52.2611 27.4835 52.1308 27.5003 52 27.5C51.6695 27.5002 51.3482 27.3913 51.086 27.1901C50.8238 26.9889 50.6354 26.7068 50.55 26.3875C49.7387 23.2755 48.1121 20.4361 45.838 18.162C43.5639 15.8879 40.7246 14.2614 37.6125 13.45C37.422 13.3992 37.2434 13.3114 37.0869 13.1915C36.9304 13.0717 36.7991 12.9222 36.7004 12.7515C36.6017 12.5808 36.5376 12.3924 36.5118 12.197C36.486 12.0015 36.499 11.8029 36.55 11.6125ZM35.6125 21.45C39.25 22.42 41.58 24.75 42.55 28.3875C42.6354 28.7068 42.8238 28.9889 43.086 29.1901C43.3482 29.3913 43.6695 29.5002 44 29.5C44.1308 29.5003 44.2611 29.4835 44.3875 29.45C44.578 29.3992 44.7566 29.3114 44.9131 29.1915C45.0696 29.0717 45.201 28.9222 45.2997 28.7515C45.3983 28.5808 45.4624 28.3924 45.4882 28.197C45.514 28.0015 45.501 27.8029 45.45 27.6125C44.2 22.935 41.065 19.8 36.3875 18.55C36.1971 18.4991 35.9985 18.4862 35.8031 18.5121C35.6077 18.538 35.4194 18.602 35.2487 18.7007C35.0781 18.7994 34.9286 18.9307 34.8087 19.0871C34.6888 19.2436 34.6009 19.4221 34.55 19.6125C34.4991 19.8029 34.4863 20.0015 34.5121 20.1969C34.538 20.3923 34.6021 20.5807 34.7007 20.7513C34.7994 20.9219 34.9307 21.0715 35.0871 21.1914C35.2436 21.3112 35.4221 21.3991 35.6125 21.45ZM55.4725 45.7C55.0442 48.9681 53.4404 51.9684 50.961 54.14C48.4815 56.3117 45.2961 57.5061 42 57.5C22.425 57.5 6.50002 41.575 6.50002 22C6.49371 18.7051 7.68707 15.5206 9.8572 13.0413C12.0273 10.562 15.0258 8.95752 18.2925 8.52752C19.0445 8.43613 19.8059 8.59119 20.4622 8.96941C21.1186 9.34762 21.6345 9.92858 21.9325 10.625L27.2075 22.4C27.4404 22.9331 27.5368 23.5158 27.4879 24.0955C27.439 24.6751 27.2464 25.2335 26.9275 25.72C26.8954 25.7695 26.8603 25.8171 26.8225 25.8625L21.555 32.1275C21.523 32.1925 21.5064 32.2639 21.5064 32.3363C21.5064 32.4087 21.523 32.4801 21.555 32.545C23.47 36.465 27.58 40.545 31.555 42.4575C31.6214 42.4878 31.6939 42.5022 31.7668 42.4996C31.8397 42.497 31.911 42.4774 31.975 42.4425L38.1475 37.1925C38.1917 37.1543 38.2385 37.1192 38.2875 37.0875C38.7719 36.7646 39.3292 36.5676 39.9089 36.5143C40.4886 36.4611 41.0724 36.5532 41.6075 36.7825L53.4175 42.075C54.1047 42.3796 54.6756 42.8973 55.0457 43.5515C55.4158 44.2057 55.5654 44.9616 55.4725 45.7075V45.7ZM52.5 45.33C52.5084 45.2255 52.4837 45.121 52.4294 45.0312C52.3751 44.9415 52.294 44.8711 52.1975 44.83L40.385 39.5375C40.3205 39.5126 40.2513 39.502 40.1823 39.5063C40.1133 39.5106 40.046 39.5298 39.985 39.5625L33.815 44.8125C33.77 44.85 33.7225 44.885 33.675 44.9175C33.1717 45.2531 32.5901 45.4526 31.9867 45.4964C31.3834 45.5402 30.779 45.4269 30.2325 45.1675C25.6425 42.95 21.0675 38.4175 18.85 33.87C18.5892 33.3267 18.4731 32.7252 18.513 32.1239C18.5528 31.5225 18.7473 30.9417 19.0775 30.4375C19.1099 30.3875 19.1458 30.3399 19.185 30.295L24.4475 24.0225C24.4776 23.957 24.4932 23.8858 24.4932 23.8138C24.4932 23.7417 24.4776 23.6705 24.4475 23.605L19.185 11.8275C19.1503 11.7329 19.0878 11.6511 19.0057 11.5926C18.9236 11.5342 18.8258 11.5019 18.725 11.5H18.6675C16.1249 11.8382 13.7923 13.0904 12.1053 15.0226C10.4183 16.9548 9.4922 19.435 9.50003 22C9.50003 39.92 24.08 54.5 42 54.5C44.5654 54.5078 47.0459 53.5814 48.9782 51.8938C50.9105 50.2063 52.1624 47.8731 52.5 45.33Z" fill="white"/>
</svg>
