<svg width="64" height="64" viewBox="0 0 64 64" fill="none" xmlns="http://www.w3.org/2000/svg">
<path fill-rule="evenodd" clip-rule="evenodd" d="M32.659 55.9175C35.726 53.1345 38.5644 50.1097 41.147 46.8722C46.587 40.0375 49.8963 33.2988 50.1203 27.3068C50.209 24.8716 49.8059 22.4435 48.9351 20.1676C48.0643 17.8916 46.7438 15.8146 45.0523 14.0604C43.3608 12.3062 41.3332 10.911 39.0904 9.95804C36.8476 9.00506 34.4358 8.51391 31.999 8.51391C29.5622 8.51391 27.1503 9.00506 24.9076 9.95804C22.6648 10.911 20.6371 12.3062 18.9457 14.0604C17.2542 15.8146 15.9336 17.8916 15.0629 20.1676C14.1921 22.4435 13.789 24.8716 13.8777 27.3068C14.1043 33.2988 17.4163 40.0375 22.8537 46.8722C25.4362 50.1097 28.2747 53.1345 31.3417 55.9175C31.6368 56.1842 31.8563 56.3779 32.0003 56.4988L32.659 55.9175ZM30.0323 59.0242C30.0323 59.0242 10.667 42.7148 10.667 26.6668C10.667 21.0089 12.9146 15.5827 16.9154 11.5819C20.9162 7.58111 26.3424 5.3335 32.0003 5.3335C37.6583 5.3335 43.0845 7.58111 47.0853 11.5819C51.086 15.5827 53.3337 21.0089 53.3337 26.6668C53.3337 42.7148 33.9683 59.0242 33.9683 59.0242C32.891 60.0162 31.1177 60.0055 30.0323 59.0242ZM32.0003 34.1335C33.9806 34.1335 35.8798 33.3468 37.2801 31.9466C38.6803 30.5463 39.467 28.6471 39.467 26.6668C39.467 24.6865 38.6803 22.7874 37.2801 21.3871C35.8798 19.9868 33.9806 19.2002 32.0003 19.2002C30.02 19.2002 28.1209 19.9868 26.7206 21.3871C25.3203 22.7874 24.5337 24.6865 24.5337 26.6668C24.5337 28.6471 25.3203 30.5463 26.7206 31.9466C28.1209 33.3468 30.02 34.1335 32.0003 34.1335ZM32.0003 37.3335C29.1714 37.3335 26.4582 36.2097 24.4579 34.2093C22.4575 32.2089 21.3337 29.4958 21.3337 26.6668C21.3337 23.8379 22.4575 21.1247 24.4579 19.1244C26.4582 17.124 29.1714 16.0002 32.0003 16.0002C34.8293 16.0002 37.5424 17.124 39.5428 19.1244C41.5432 21.1247 42.667 23.8379 42.667 26.6668C42.667 29.4958 41.5432 32.2089 39.5428 34.2093C37.5424 36.2097 34.8293 37.3335 32.0003 37.3335Z" fill="white"/>
</svg>
