<svg width="22" height="12" viewBox="0 0 22 12" fill="none" xmlns="http://www.w3.org/2000/svg">
<path d="M16.6686 6.66683H4.66862C4.29529 6.66683 4.00195 6.3735 4.00195 6.00016C4.00195 5.62683 4.29529 5.3335 4.66862 5.3335H16.6686C17.042 5.3335 17.3353 5.62683 17.3353 6.00016C17.3353 6.3735 17.042 6.66683 16.6686 6.66683Z" fill="white"/>
<path d="M13.3356 11.3335C13.2482 11.3345 13.1615 11.3173 13.0811 11.2828C13.0007 11.2484 12.9285 11.1975 12.8689 11.1335C12.6023 10.8668 12.6023 10.4535 12.8689 10.1868L17.0689 5.9868L12.8689 1.7868C12.6023 1.52014 12.6023 1.1068 12.8689 0.840137C13.1356 0.57347 13.5489 0.57347 13.8156 0.840137L18.4823 5.5068C18.7489 5.77347 18.7489 6.1868 18.4823 6.45347L13.8156 11.1201C13.6823 11.2535 13.5089 11.3201 13.3489 11.3201L13.3356 11.3335Z" fill="white"/>
</svg>
