<svg width="22" height="12" viewBox="0 0 22 12" fill="none" xmlns="http://www.w3.org/2000/svg">
<path d="M16.6689 6.66683H4.66886C4.29553 6.66683 4.0022 6.3735 4.0022 6.00016C4.0022 5.62683 4.29553 5.3335 4.66886 5.3335H16.6689C17.0422 5.3335 17.3355 5.62683 17.3355 6.00016C17.3355 6.3735 17.0422 6.66683 16.6689 6.66683Z" fill="white"/>
<path d="M13.3354 11.3335C13.2479 11.3345 13.1612 11.3173 13.0809 11.2828C13.0005 11.2484 12.9282 11.1975 12.8687 11.1335C12.602 10.8668 12.602 10.4535 12.8687 10.1868L17.0687 5.9868L12.8687 1.7868C12.602 1.52014 12.602 1.1068 12.8687 0.840137C13.1354 0.57347 13.5487 0.57347 13.8154 0.840137L18.482 5.5068C18.7487 5.77347 18.7487 6.1868 18.482 6.45347L13.8154 11.1201C13.682 11.2535 13.5087 11.3201 13.3487 11.3201L13.3354 11.3335Z" fill="white"/>
</svg>
