<svg width="22" height="12" viewBox="0 0 22 12" fill="none" xmlns="http://www.w3.org/2000/svg">
<path d="M16.6686 6.66683H4.66862C4.29529 6.66683 4.00195 6.3735 4.00195 6.00016C4.00195 5.62683 4.29529 5.3335 4.66862 5.3335H16.6686C17.042 5.3335 17.3353 5.62683 17.3353 6.00016C17.3353 6.3735 17.042 6.66683 16.6686 6.66683Z" fill="white"/>
<path d="M13.3346 11.3335C13.2472 11.3345 13.1605 11.3173 13.0801 11.2828C12.9998 11.2484 12.9275 11.1975 12.868 11.1335C12.6013 10.8668 12.6013 10.4535 12.868 10.1868L17.068 5.9868L12.868 1.7868C12.6013 1.52014 12.6013 1.1068 12.868 0.840137C13.1346 0.57347 13.548 0.57347 13.8146 0.840137L18.4813 5.5068C18.748 5.77347 18.748 6.1868 18.4813 6.45347L13.8146 11.1201C13.6813 11.2535 13.508 11.3201 13.348 11.3201L13.3346 11.3335Z" fill="white"/>
</svg>
