<svg width="24" height="24" viewBox="0 0 24 24" fill="none" xmlns="http://www.w3.org/2000/svg">
<path d="M12.002 2C17.525 2 22.002 6.477 22.002 12C22.002 17.523 17.525 22 12.002 22C10.2347 22.003 8.49855 21.5353 6.97197 20.645L2.00597 22L3.35797 17.032C2.46693 15.5049 1.99887 13.768 2.00197 12C2.00197 6.477 6.47897 2 12.002 2ZM8.59397 7.3L8.39397 7.308C8.26466 7.31691 8.13832 7.35087 8.02197 7.408C7.91354 7.46951 7.81453 7.5463 7.72797 7.636C7.60797 7.749 7.53997 7.847 7.46697 7.942C7.09709 8.4229 6.89794 9.01331 6.90097 9.62C6.90297 10.11 7.03097 10.587 7.23097 11.033C7.63997 11.935 8.31297 12.89 9.20097 13.775C9.41497 13.988 9.62497 14.202 9.85097 14.401C10.9544 15.3724 12.2692 16.073 13.691 16.447L14.259 16.534C14.444 16.544 14.629 16.53 14.815 16.521C15.1062 16.5056 15.3905 16.4268 15.648 16.29C15.7788 16.2223 15.9066 16.1489 16.031 16.07C16.031 16.07 16.0733 16.0413 16.156 15.98C16.291 15.88 16.374 15.809 16.486 15.692C16.57 15.6053 16.64 15.5047 16.696 15.39C16.774 15.227 16.852 14.916 16.884 14.657C16.908 14.459 16.901 14.351 16.898 14.284C16.894 14.177 16.805 14.066 16.708 14.019L16.126 13.758C16.126 13.758 15.256 13.379 14.724 13.137C14.6683 13.1128 14.6086 13.0989 14.548 13.096C14.4795 13.0888 14.4104 13.0965 14.3452 13.1184C14.2799 13.1403 14.2202 13.176 14.17 13.223C14.165 13.221 14.098 13.278 13.375 14.154C13.3335 14.2098 13.2763 14.2519 13.2108 14.2751C13.1452 14.2982 13.0743 14.3013 13.007 14.284C12.9418 14.2666 12.878 14.2446 12.816 14.218C12.692 14.166 12.649 14.146 12.564 14.11C11.9898 13.8599 11.4584 13.5215 10.989 13.107C10.863 12.997 10.746 12.877 10.626 12.761C10.2326 12.3842 9.88972 11.958 9.60597 11.493L9.54697 11.398C9.50523 11.3338 9.47101 11.265 9.44497 11.193C9.40697 11.046 9.50597 10.928 9.50597 10.928C9.50597 10.928 9.74897 10.662 9.86197 10.518C9.97197 10.378 10.065 10.242 10.125 10.145C10.243 9.955 10.28 9.76 10.218 9.609C9.93797 8.925 9.64863 8.24467 9.34997 7.568C9.29097 7.434 9.11597 7.338 8.95697 7.319C8.90297 7.31233 8.84897 7.307 8.79497 7.303C8.6607 7.2953 8.52606 7.29664 8.39197 7.307L8.59397 7.3Z" fill="white"/>
</svg>
